M48
;GenerationSoftware,Autodesk,EAGLE,9.0.1*%
;CreationDate,2018-07-04T19:41:49Z*%
FMAT,2
ICI,OFF
METRIC,TZ,000.000
T5C0.350
T4C0.500
T3C1.016
T2C1.500
T1C3.200
%
G90
M71
T1
X497000Y3000
X497000Y37000
X3000Y3000
X3000Y37000
X50000Y35000
X100000Y13000
X150000Y35000
X200000Y13000
X250000Y35000
X300000Y13000
X350000Y34700
X400000Y13000
X450000Y34700
T2
X267900Y23800
X229100Y13300
X17000Y20000
X25000Y28000
X33000Y20000
X29400Y26600
X20600Y26700
X17900Y23800
X32000Y23800
X17900Y16200
X32000Y16200
X29100Y13300
X470500Y13400
X479100Y13300
X482000Y16200
X467900Y16200
X482000Y23800
X467900Y23800
X470600Y26700
X479400Y26600
X483000Y20000
X475000Y28000
X467000Y20000
X420500Y13400
X429100Y13300
X432000Y16200
X417900Y16200
X432000Y23800
X417900Y23800
X420600Y26700
X429400Y26600
X433000Y20000
X425000Y28000
X417000Y20000
X370500Y13400
X379100Y13300
X382000Y16200
X367900Y16200
X382000Y23800
X367900Y23800
X370600Y26700
X379400Y26600
X383000Y20000
X375000Y28000
X367000Y20000
X320500Y13400
X329100Y13300
X332000Y16200
X317900Y16200
X332000Y23800
X317900Y23800
X320600Y26700
X329400Y26600
X333000Y20000
X325000Y28000
X317000Y20000
X270500Y13400
X279100Y13300
X282000Y16200
X267900Y16200
X282000Y23800
X20500Y13400
X270600Y26700
X279400Y26600
X283000Y20000
X275000Y28000
X267000Y20000
X220500Y13400
X66000Y20000
X232000Y16200
X217900Y16200
X232000Y23800
X217900Y23800
X220600Y26700
X229400Y26600
X233000Y20000
X225000Y28000
X217000Y20000
X170500Y13400
X179100Y13300
X182000Y16200
X167900Y16200
X182000Y23800
X167900Y23800
X170600Y26700
X179400Y26600
X183000Y20000
X175000Y28000
X167000Y20000
X120500Y13400
X129100Y13300
X132000Y16200
X117900Y16200
X132000Y23800
X117900Y23800
X120600Y26700
X129400Y26600
X133000Y20000
X125000Y28000
X117000Y20000
X69500Y13400
X78100Y13300
X81000Y16200
X66900Y16200
X81000Y23800
X66900Y23800
X69600Y26700
X78400Y26600
X82000Y20000
X74000Y28000
T3
X492400Y19200
X489860Y19200
X492400Y6500
X489860Y6500
X492400Y9040
X489860Y9040
X492400Y11580
X489860Y11580
X492400Y14120
X489860Y14120
X492400Y16660
X489860Y16660
X492400Y21740
X489860Y21740
X492400Y24280
X489860Y24280
X492400Y26820
X489860Y26820
X492400Y29360
X489860Y29360
X235800Y30700
X238340Y30700
X240880Y30700
X243420Y30700
X245960Y30700
T4
X268000Y31000
T5
X256345Y21733
X256700Y19500
X249700Y19800
X251500Y18400
X242800Y24100
X248900Y24700
X242800Y25400
X249400Y17600
X240635Y26735
X251800Y20400
X255000Y27400
X257100Y20900
X250900Y23500
X250900Y26300
X250200Y18300
X257200Y30700
X258000Y19900
X414800Y10900
X412800Y13600
X256300Y24700
X256300Y26000
X244200Y20100
X248900Y22100
X242800Y20400
X248900Y23500
X242800Y22800
X242600Y11000
X258900Y15200
X258900Y16000
X265400Y21900
X265000Y18000
X253200Y15800
X259100Y19800
X266200Y15200
X240000Y15600
X237900Y18600
X236500Y16600
X243100Y21700
X294000Y14300
X311700Y13800
X305000Y15100
X285100Y15700
X284300Y13400
X278400Y15900
X274700Y14700
X243000Y27600
X261100Y30500
X257400Y32900
X260000Y27400
X258300Y27200
X246500Y35300
X480300Y29900
X486600Y23400
X496300Y10900
X492100Y2400
X483800Y1600
X475200Y1700
X442700Y1800
X462200Y2000
X411800Y1600
X352700Y1600
X341000Y2300
X271700Y1600
X265400Y2000
X31600Y3100
X190800Y2200
X216900Y1800
X276400Y2000
X281000Y2000
X238900Y17200
X239900Y29200
X59700Y9500
X89300Y14100
X228900Y2700
X207300Y2200
X209800Y11900
X181700Y1900
X187600Y11000
X153800Y2500
X150000Y10900
X109400Y1900
X110200Y13300
X93300Y12300
X80500Y1400
X66900Y8000
X61700Y2100
X54500Y7900
X37300Y4800
X32100Y5200
X8300Y4200
X21700Y4800
X5500Y7400
X14400Y11100
X6000Y14300
X13200Y20700
X5600Y22800
X16200Y29600
X34000Y34900
X7800Y29400
X13800Y35200
X23800Y36500
X43100Y36100
X55900Y37000
X62700Y34400
X74300Y37500
X85600Y35200
X97600Y35600
X114000Y35100
X127400Y34800
X141500Y32800
X138600Y35300
X185000Y32300
X157900Y35800
X169000Y35800
X178800Y35800
X191000Y35800
X202600Y36000
X216300Y37300
X224600Y35800
X244000Y32900
X239500Y35100
X263400Y33500
X274500Y35500
X286900Y34700
X303100Y34400
X312800Y34800
X333300Y34700
X323400Y34700
X344800Y33800
X341500Y36100
X392600Y24200
X389700Y12800
X403700Y10100
X395700Y35200
X384600Y34600
X444900Y34800
X406700Y34600
X415500Y35000
X421600Y34600
X431900Y34600
X438400Y34500
X410600Y24200
X410800Y12600
X424900Y15400
X452000Y10400
X477400Y2100
X475000Y11300
X476200Y16600
X485700Y16400
X484900Y26200
X475500Y24400
X457700Y24200
X456300Y34700
X467200Y34600
X476600Y34700
X373800Y36100
X362000Y35600
X354500Y36000
X264800Y15200
X254700Y2900
X259100Y2900
X257900Y2900
X256800Y2900
X255700Y2900
X246700Y28600
X245700Y28600
X248700Y26500
M30