G04 EAGLE Gerber X2 export*
G75*
%MOMM*%
%FSLAX34Y34*%
%LPD*%
%AMOC8*
5,1,8,0,0,1.08239X$1,22.5*%
G01*
%ADD10C,0.150000*%
%ADD11C,0.120000*%
%ADD12C,0.101600*%
%ADD13C,0.152400*%
%ADD14C,0.200000*%
%ADD15C,0.127000*%
%ADD16C,0.076200*%


D10*
X2475701Y135930D03*
D11*
X2476451Y128900D02*
X2472500Y128900D01*
X2472500Y84900D01*
X2476451Y84900D01*
X2536549Y128900D02*
X2540500Y128900D01*
X2540500Y84900D01*
X2536549Y84900D01*
D12*
X2465642Y97749D02*
X2457204Y97749D01*
X2457091Y97751D01*
X2456978Y97757D01*
X2456865Y97767D01*
X2456752Y97781D01*
X2456640Y97798D01*
X2456529Y97820D01*
X2456419Y97845D01*
X2456309Y97875D01*
X2456201Y97908D01*
X2456094Y97945D01*
X2455988Y97985D01*
X2455884Y98030D01*
X2455781Y98078D01*
X2455680Y98129D01*
X2455581Y98184D01*
X2455484Y98242D01*
X2455389Y98304D01*
X2455296Y98369D01*
X2455206Y98437D01*
X2455118Y98508D01*
X2455032Y98583D01*
X2454949Y98660D01*
X2454869Y98740D01*
X2454792Y98823D01*
X2454717Y98909D01*
X2454646Y98997D01*
X2454578Y99087D01*
X2454513Y99180D01*
X2454451Y99275D01*
X2454393Y99372D01*
X2454338Y99471D01*
X2454287Y99572D01*
X2454239Y99675D01*
X2454194Y99779D01*
X2454154Y99885D01*
X2454117Y99992D01*
X2454084Y100100D01*
X2454054Y100210D01*
X2454029Y100320D01*
X2454007Y100431D01*
X2453990Y100543D01*
X2453976Y100656D01*
X2453966Y100769D01*
X2453960Y100882D01*
X2453958Y100995D01*
X2453960Y101108D01*
X2453966Y101221D01*
X2453976Y101334D01*
X2453990Y101447D01*
X2454007Y101559D01*
X2454029Y101670D01*
X2454054Y101780D01*
X2454084Y101890D01*
X2454117Y101998D01*
X2454154Y102105D01*
X2454194Y102211D01*
X2454239Y102315D01*
X2454287Y102418D01*
X2454338Y102519D01*
X2454393Y102618D01*
X2454451Y102715D01*
X2454513Y102810D01*
X2454578Y102903D01*
X2454646Y102993D01*
X2454717Y103081D01*
X2454792Y103167D01*
X2454869Y103250D01*
X2454949Y103330D01*
X2455032Y103407D01*
X2455118Y103482D01*
X2455206Y103553D01*
X2455296Y103621D01*
X2455389Y103686D01*
X2455484Y103748D01*
X2455581Y103806D01*
X2455680Y103861D01*
X2455781Y103912D01*
X2455884Y103960D01*
X2455988Y104005D01*
X2456094Y104045D01*
X2456201Y104082D01*
X2456309Y104115D01*
X2456419Y104145D01*
X2456529Y104170D01*
X2456640Y104192D01*
X2456752Y104209D01*
X2456865Y104223D01*
X2456978Y104233D01*
X2457091Y104239D01*
X2457204Y104241D01*
X2457204Y104240D02*
X2465642Y104240D01*
X2465642Y113130D02*
X2465640Y113237D01*
X2465634Y113343D01*
X2465624Y113449D01*
X2465611Y113555D01*
X2465593Y113661D01*
X2465572Y113765D01*
X2465547Y113869D01*
X2465518Y113972D01*
X2465486Y114073D01*
X2465449Y114173D01*
X2465409Y114272D01*
X2465366Y114370D01*
X2465319Y114466D01*
X2465268Y114560D01*
X2465214Y114652D01*
X2465157Y114742D01*
X2465097Y114830D01*
X2465033Y114915D01*
X2464966Y114998D01*
X2464896Y115079D01*
X2464824Y115157D01*
X2464748Y115233D01*
X2464670Y115305D01*
X2464589Y115375D01*
X2464506Y115442D01*
X2464421Y115506D01*
X2464333Y115566D01*
X2464243Y115623D01*
X2464151Y115677D01*
X2464057Y115728D01*
X2463961Y115775D01*
X2463863Y115818D01*
X2463764Y115858D01*
X2463664Y115895D01*
X2463563Y115927D01*
X2463460Y115956D01*
X2463356Y115981D01*
X2463252Y116002D01*
X2463146Y116020D01*
X2463040Y116033D01*
X2462934Y116043D01*
X2462828Y116049D01*
X2462721Y116051D01*
X2465642Y113130D02*
X2465640Y113009D01*
X2465634Y112888D01*
X2465624Y112768D01*
X2465611Y112647D01*
X2465593Y112528D01*
X2465572Y112408D01*
X2465547Y112290D01*
X2465518Y112173D01*
X2465485Y112056D01*
X2465449Y111941D01*
X2465408Y111827D01*
X2465365Y111714D01*
X2465317Y111602D01*
X2465266Y111493D01*
X2465211Y111385D01*
X2465153Y111278D01*
X2465092Y111174D01*
X2465027Y111072D01*
X2464959Y110972D01*
X2464888Y110874D01*
X2464814Y110778D01*
X2464737Y110685D01*
X2464656Y110595D01*
X2464573Y110507D01*
X2464487Y110422D01*
X2464398Y110339D01*
X2464307Y110260D01*
X2464213Y110183D01*
X2464117Y110110D01*
X2464019Y110040D01*
X2463918Y109973D01*
X2463815Y109909D01*
X2463710Y109849D01*
X2463603Y109792D01*
X2463495Y109738D01*
X2463385Y109688D01*
X2463273Y109642D01*
X2463160Y109599D01*
X2463045Y109560D01*
X2460449Y115078D02*
X2460526Y115157D01*
X2460607Y115233D01*
X2460690Y115306D01*
X2460775Y115376D01*
X2460863Y115443D01*
X2460953Y115507D01*
X2461045Y115567D01*
X2461140Y115624D01*
X2461236Y115678D01*
X2461334Y115729D01*
X2461434Y115776D01*
X2461536Y115820D01*
X2461639Y115860D01*
X2461743Y115896D01*
X2461849Y115928D01*
X2461955Y115957D01*
X2462063Y115982D01*
X2462171Y116004D01*
X2462281Y116021D01*
X2462390Y116035D01*
X2462500Y116044D01*
X2462611Y116050D01*
X2462721Y116052D01*
X2460449Y115077D02*
X2453958Y109560D01*
X2453958Y116051D01*
D13*
X2478000Y165500D02*
X2534000Y165500D01*
X2534000Y270500D02*
X2478000Y270500D01*
D14*
X2453000Y172000D02*
X2453002Y172063D01*
X2453008Y172125D01*
X2453018Y172187D01*
X2453031Y172249D01*
X2453049Y172309D01*
X2453070Y172368D01*
X2453095Y172426D01*
X2453124Y172482D01*
X2453156Y172536D01*
X2453191Y172588D01*
X2453229Y172637D01*
X2453271Y172685D01*
X2453315Y172729D01*
X2453363Y172771D01*
X2453412Y172809D01*
X2453464Y172844D01*
X2453518Y172876D01*
X2453574Y172905D01*
X2453632Y172930D01*
X2453691Y172951D01*
X2453751Y172969D01*
X2453813Y172982D01*
X2453875Y172992D01*
X2453937Y172998D01*
X2454000Y173000D01*
X2454063Y172998D01*
X2454125Y172992D01*
X2454187Y172982D01*
X2454249Y172969D01*
X2454309Y172951D01*
X2454368Y172930D01*
X2454426Y172905D01*
X2454482Y172876D01*
X2454536Y172844D01*
X2454588Y172809D01*
X2454637Y172771D01*
X2454685Y172729D01*
X2454729Y172685D01*
X2454771Y172637D01*
X2454809Y172588D01*
X2454844Y172536D01*
X2454876Y172482D01*
X2454905Y172426D01*
X2454930Y172368D01*
X2454951Y172309D01*
X2454969Y172249D01*
X2454982Y172187D01*
X2454992Y172125D01*
X2454998Y172063D01*
X2455000Y172000D01*
X2454998Y171937D01*
X2454992Y171875D01*
X2454982Y171813D01*
X2454969Y171751D01*
X2454951Y171691D01*
X2454930Y171632D01*
X2454905Y171574D01*
X2454876Y171518D01*
X2454844Y171464D01*
X2454809Y171412D01*
X2454771Y171363D01*
X2454729Y171315D01*
X2454685Y171271D01*
X2454637Y171229D01*
X2454588Y171191D01*
X2454536Y171156D01*
X2454482Y171124D01*
X2454426Y171095D01*
X2454368Y171070D01*
X2454309Y171049D01*
X2454249Y171031D01*
X2454187Y171018D01*
X2454125Y171008D01*
X2454063Y171002D01*
X2454000Y171000D01*
X2453937Y171002D01*
X2453875Y171008D01*
X2453813Y171018D01*
X2453751Y171031D01*
X2453691Y171049D01*
X2453632Y171070D01*
X2453574Y171095D01*
X2453518Y171124D01*
X2453464Y171156D01*
X2453412Y171191D01*
X2453363Y171229D01*
X2453315Y171271D01*
X2453271Y171315D01*
X2453229Y171363D01*
X2453191Y171412D01*
X2453156Y171464D01*
X2453124Y171518D01*
X2453095Y171574D01*
X2453070Y171632D01*
X2453049Y171691D01*
X2453031Y171751D01*
X2453018Y171813D01*
X2453008Y171875D01*
X2453002Y171937D01*
X2453000Y172000D01*
D15*
X2473544Y153045D02*
X2473544Y144769D01*
X2473544Y153045D02*
X2473546Y153156D01*
X2473552Y153267D01*
X2473561Y153378D01*
X2473575Y153488D01*
X2473592Y153598D01*
X2473614Y153707D01*
X2473639Y153815D01*
X2473667Y153922D01*
X2473700Y154029D01*
X2473736Y154134D01*
X2473776Y154237D01*
X2473819Y154340D01*
X2473866Y154440D01*
X2473917Y154539D01*
X2473970Y154637D01*
X2474028Y154732D01*
X2474088Y154825D01*
X2474152Y154916D01*
X2474219Y155005D01*
X2474289Y155091D01*
X2474362Y155175D01*
X2474437Y155256D01*
X2474516Y155335D01*
X2474597Y155410D01*
X2474681Y155483D01*
X2474767Y155553D01*
X2474856Y155620D01*
X2474947Y155684D01*
X2475040Y155744D01*
X2475136Y155802D01*
X2475233Y155855D01*
X2475332Y155906D01*
X2475432Y155953D01*
X2475535Y155996D01*
X2475638Y156036D01*
X2475743Y156072D01*
X2475850Y156105D01*
X2475957Y156133D01*
X2476065Y156158D01*
X2476174Y156180D01*
X2476284Y156197D01*
X2476394Y156211D01*
X2476505Y156220D01*
X2476616Y156226D01*
X2476727Y156228D01*
X2476838Y156226D01*
X2476949Y156220D01*
X2477060Y156211D01*
X2477170Y156197D01*
X2477280Y156180D01*
X2477389Y156158D01*
X2477497Y156133D01*
X2477604Y156105D01*
X2477711Y156072D01*
X2477816Y156036D01*
X2477919Y155996D01*
X2478022Y155953D01*
X2478122Y155906D01*
X2478221Y155855D01*
X2478319Y155802D01*
X2478414Y155744D01*
X2478507Y155684D01*
X2478598Y155620D01*
X2478687Y155553D01*
X2478773Y155483D01*
X2478857Y155410D01*
X2478938Y155335D01*
X2479017Y155256D01*
X2479092Y155175D01*
X2479165Y155091D01*
X2479235Y155005D01*
X2479302Y154916D01*
X2479366Y154825D01*
X2479426Y154732D01*
X2479484Y154637D01*
X2479537Y154539D01*
X2479588Y154440D01*
X2479635Y154340D01*
X2479678Y154237D01*
X2479718Y154134D01*
X2479754Y154029D01*
X2479787Y153922D01*
X2479815Y153815D01*
X2479840Y153707D01*
X2479862Y153598D01*
X2479879Y153488D01*
X2479893Y153378D01*
X2479902Y153267D01*
X2479908Y153156D01*
X2479910Y153045D01*
X2479910Y144769D01*
X2485382Y149862D02*
X2489201Y149862D01*
X2489201Y149863D02*
X2489301Y149865D01*
X2489401Y149871D01*
X2489500Y149881D01*
X2489599Y149894D01*
X2489698Y149912D01*
X2489795Y149933D01*
X2489892Y149959D01*
X2489988Y149988D01*
X2490082Y150020D01*
X2490175Y150057D01*
X2490267Y150097D01*
X2490357Y150141D01*
X2490445Y150188D01*
X2490531Y150238D01*
X2490615Y150292D01*
X2490698Y150349D01*
X2490777Y150410D01*
X2490855Y150473D01*
X2490929Y150539D01*
X2491001Y150609D01*
X2491071Y150681D01*
X2491137Y150756D01*
X2491200Y150833D01*
X2491261Y150913D01*
X2491318Y150995D01*
X2491372Y151079D01*
X2491422Y151165D01*
X2491470Y151253D01*
X2491513Y151343D01*
X2491553Y151435D01*
X2491590Y151528D01*
X2491622Y151622D01*
X2491651Y151718D01*
X2491677Y151815D01*
X2491698Y151912D01*
X2491716Y152011D01*
X2491729Y152110D01*
X2491739Y152209D01*
X2491745Y152309D01*
X2491747Y152409D01*
X2491748Y152409D02*
X2491748Y153045D01*
X2491746Y153156D01*
X2491740Y153267D01*
X2491731Y153378D01*
X2491717Y153488D01*
X2491700Y153598D01*
X2491678Y153707D01*
X2491653Y153815D01*
X2491625Y153922D01*
X2491592Y154029D01*
X2491556Y154134D01*
X2491516Y154237D01*
X2491473Y154340D01*
X2491426Y154440D01*
X2491375Y154539D01*
X2491322Y154637D01*
X2491264Y154732D01*
X2491204Y154825D01*
X2491140Y154916D01*
X2491073Y155005D01*
X2491003Y155091D01*
X2490930Y155175D01*
X2490855Y155256D01*
X2490776Y155335D01*
X2490695Y155410D01*
X2490611Y155483D01*
X2490525Y155553D01*
X2490436Y155620D01*
X2490345Y155684D01*
X2490252Y155744D01*
X2490157Y155802D01*
X2490059Y155855D01*
X2489960Y155906D01*
X2489860Y155953D01*
X2489757Y155996D01*
X2489654Y156036D01*
X2489549Y156072D01*
X2489442Y156105D01*
X2489335Y156133D01*
X2489227Y156158D01*
X2489118Y156180D01*
X2489008Y156197D01*
X2488898Y156211D01*
X2488787Y156220D01*
X2488676Y156226D01*
X2488565Y156228D01*
X2488454Y156226D01*
X2488343Y156220D01*
X2488232Y156211D01*
X2488122Y156197D01*
X2488012Y156180D01*
X2487903Y156158D01*
X2487795Y156133D01*
X2487688Y156105D01*
X2487581Y156072D01*
X2487476Y156036D01*
X2487373Y155996D01*
X2487270Y155953D01*
X2487170Y155906D01*
X2487071Y155855D01*
X2486974Y155802D01*
X2486878Y155744D01*
X2486785Y155684D01*
X2486694Y155620D01*
X2486605Y155553D01*
X2486519Y155483D01*
X2486435Y155410D01*
X2486354Y155335D01*
X2486275Y155256D01*
X2486200Y155175D01*
X2486127Y155091D01*
X2486057Y155005D01*
X2485990Y154916D01*
X2485926Y154825D01*
X2485866Y154732D01*
X2485808Y154637D01*
X2485755Y154539D01*
X2485704Y154440D01*
X2485657Y154340D01*
X2485614Y154237D01*
X2485574Y154134D01*
X2485538Y154029D01*
X2485505Y153922D01*
X2485477Y153815D01*
X2485452Y153707D01*
X2485430Y153598D01*
X2485413Y153488D01*
X2485399Y153378D01*
X2485390Y153267D01*
X2485384Y153156D01*
X2485382Y153045D01*
X2485382Y149862D01*
X2485384Y149722D01*
X2485390Y149581D01*
X2485399Y149441D01*
X2485413Y149302D01*
X2485430Y149162D01*
X2485451Y149024D01*
X2485476Y148886D01*
X2485505Y148748D01*
X2485538Y148612D01*
X2485574Y148476D01*
X2485614Y148342D01*
X2485658Y148208D01*
X2485705Y148076D01*
X2485756Y147945D01*
X2485811Y147816D01*
X2485869Y147688D01*
X2485931Y147562D01*
X2485996Y147438D01*
X2486064Y147316D01*
X2486136Y147195D01*
X2486211Y147076D01*
X2486290Y146960D01*
X2486371Y146846D01*
X2486456Y146734D01*
X2486544Y146624D01*
X2486634Y146517D01*
X2486728Y146413D01*
X2486824Y146311D01*
X2486924Y146211D01*
X2487026Y146115D01*
X2487130Y146021D01*
X2487237Y145931D01*
X2487347Y145843D01*
X2487459Y145758D01*
X2487573Y145677D01*
X2487689Y145598D01*
X2487808Y145523D01*
X2487928Y145451D01*
X2488051Y145383D01*
X2488175Y145318D01*
X2488301Y145256D01*
X2488429Y145198D01*
X2488558Y145143D01*
X2488689Y145092D01*
X2488821Y145045D01*
X2488955Y145001D01*
X2489089Y144961D01*
X2489225Y144925D01*
X2489361Y144892D01*
X2489499Y144863D01*
X2489637Y144838D01*
X2489775Y144817D01*
X2489915Y144800D01*
X2490054Y144786D01*
X2490194Y144777D01*
X2490335Y144771D01*
X2490475Y144769D01*
D16*
X2618131Y236469D02*
X2618131Y238558D01*
X2618131Y236469D02*
X2618133Y236380D01*
X2618139Y236292D01*
X2618148Y236204D01*
X2618161Y236116D01*
X2618178Y236029D01*
X2618198Y235943D01*
X2618223Y235858D01*
X2618250Y235773D01*
X2618282Y235690D01*
X2618316Y235609D01*
X2618355Y235529D01*
X2618396Y235451D01*
X2618441Y235374D01*
X2618489Y235300D01*
X2618540Y235227D01*
X2618594Y235157D01*
X2618652Y235090D01*
X2618712Y235024D01*
X2618774Y234962D01*
X2618840Y234902D01*
X2618907Y234844D01*
X2618977Y234790D01*
X2619050Y234739D01*
X2619124Y234691D01*
X2619201Y234646D01*
X2619279Y234605D01*
X2619359Y234566D01*
X2619440Y234532D01*
X2619523Y234500D01*
X2619608Y234473D01*
X2619693Y234448D01*
X2619779Y234428D01*
X2619866Y234411D01*
X2619954Y234398D01*
X2620042Y234389D01*
X2620130Y234383D01*
X2620219Y234381D01*
X2625441Y234381D01*
X2625532Y234383D01*
X2625623Y234389D01*
X2625714Y234399D01*
X2625804Y234413D01*
X2625893Y234430D01*
X2625981Y234452D01*
X2626069Y234478D01*
X2626155Y234507D01*
X2626240Y234540D01*
X2626323Y234577D01*
X2626405Y234617D01*
X2626485Y234661D01*
X2626563Y234708D01*
X2626639Y234759D01*
X2626712Y234812D01*
X2626783Y234869D01*
X2626852Y234930D01*
X2626917Y234993D01*
X2626980Y235058D01*
X2627040Y235127D01*
X2627098Y235198D01*
X2627151Y235271D01*
X2627202Y235347D01*
X2627249Y235425D01*
X2627293Y235505D01*
X2627333Y235587D01*
X2627370Y235670D01*
X2627403Y235755D01*
X2627432Y235841D01*
X2627458Y235929D01*
X2627480Y236017D01*
X2627497Y236106D01*
X2627511Y236196D01*
X2627521Y236287D01*
X2627527Y236378D01*
X2627529Y236469D01*
X2627529Y238558D01*
X2625441Y242027D02*
X2627529Y244637D01*
X2618131Y244637D01*
X2618131Y242027D02*
X2618131Y247248D01*
X2597131Y238558D02*
X2597131Y236469D01*
X2597133Y236380D01*
X2597139Y236292D01*
X2597148Y236204D01*
X2597161Y236116D01*
X2597178Y236029D01*
X2597198Y235943D01*
X2597223Y235858D01*
X2597250Y235773D01*
X2597282Y235690D01*
X2597316Y235609D01*
X2597355Y235529D01*
X2597396Y235451D01*
X2597441Y235374D01*
X2597489Y235300D01*
X2597540Y235227D01*
X2597594Y235157D01*
X2597652Y235090D01*
X2597712Y235024D01*
X2597774Y234962D01*
X2597840Y234902D01*
X2597907Y234844D01*
X2597977Y234790D01*
X2598050Y234739D01*
X2598124Y234691D01*
X2598201Y234646D01*
X2598279Y234605D01*
X2598359Y234566D01*
X2598440Y234532D01*
X2598523Y234500D01*
X2598608Y234473D01*
X2598693Y234448D01*
X2598779Y234428D01*
X2598866Y234411D01*
X2598954Y234398D01*
X2599042Y234389D01*
X2599130Y234383D01*
X2599219Y234381D01*
X2604441Y234381D01*
X2604532Y234383D01*
X2604623Y234389D01*
X2604714Y234399D01*
X2604804Y234413D01*
X2604893Y234430D01*
X2604981Y234452D01*
X2605069Y234478D01*
X2605155Y234507D01*
X2605240Y234540D01*
X2605323Y234577D01*
X2605405Y234617D01*
X2605485Y234661D01*
X2605563Y234708D01*
X2605639Y234759D01*
X2605712Y234812D01*
X2605783Y234869D01*
X2605852Y234930D01*
X2605917Y234993D01*
X2605980Y235058D01*
X2606040Y235127D01*
X2606098Y235198D01*
X2606151Y235271D01*
X2606202Y235347D01*
X2606249Y235425D01*
X2606293Y235505D01*
X2606333Y235587D01*
X2606370Y235670D01*
X2606403Y235755D01*
X2606432Y235841D01*
X2606458Y235929D01*
X2606480Y236017D01*
X2606497Y236106D01*
X2606511Y236196D01*
X2606521Y236287D01*
X2606527Y236378D01*
X2606529Y236469D01*
X2606529Y238558D01*
X2606530Y244898D02*
X2606528Y244993D01*
X2606522Y245087D01*
X2606513Y245181D01*
X2606500Y245275D01*
X2606483Y245368D01*
X2606462Y245460D01*
X2606437Y245552D01*
X2606409Y245642D01*
X2606377Y245731D01*
X2606342Y245819D01*
X2606303Y245905D01*
X2606261Y245990D01*
X2606215Y246073D01*
X2606166Y246154D01*
X2606114Y246233D01*
X2606059Y246310D01*
X2606000Y246384D01*
X2605939Y246456D01*
X2605875Y246526D01*
X2605808Y246593D01*
X2605738Y246657D01*
X2605666Y246718D01*
X2605592Y246777D01*
X2605515Y246832D01*
X2605436Y246884D01*
X2605355Y246933D01*
X2605272Y246979D01*
X2605187Y247021D01*
X2605101Y247060D01*
X2605013Y247095D01*
X2604924Y247127D01*
X2604834Y247155D01*
X2604742Y247180D01*
X2604650Y247201D01*
X2604557Y247218D01*
X2604463Y247231D01*
X2604369Y247240D01*
X2604275Y247246D01*
X2604180Y247248D01*
X2606529Y244898D02*
X2606527Y244790D01*
X2606521Y244681D01*
X2606511Y244573D01*
X2606498Y244466D01*
X2606480Y244359D01*
X2606459Y244252D01*
X2606434Y244147D01*
X2606405Y244042D01*
X2606373Y243939D01*
X2606336Y243837D01*
X2606296Y243736D01*
X2606253Y243637D01*
X2606206Y243539D01*
X2606155Y243443D01*
X2606101Y243349D01*
X2606044Y243257D01*
X2605983Y243167D01*
X2605919Y243079D01*
X2605853Y242994D01*
X2605783Y242911D01*
X2605710Y242831D01*
X2605634Y242753D01*
X2605556Y242678D01*
X2605475Y242606D01*
X2605391Y242537D01*
X2605305Y242471D01*
X2605217Y242408D01*
X2605126Y242349D01*
X2605034Y242292D01*
X2604939Y242239D01*
X2604843Y242190D01*
X2604744Y242144D01*
X2604645Y242101D01*
X2604543Y242062D01*
X2604441Y242027D01*
X2602352Y246465D02*
X2602421Y246534D01*
X2602492Y246600D01*
X2602565Y246664D01*
X2602641Y246725D01*
X2602720Y246783D01*
X2602800Y246837D01*
X2602883Y246889D01*
X2602967Y246937D01*
X2603053Y246983D01*
X2603141Y247024D01*
X2603231Y247063D01*
X2603322Y247098D01*
X2603414Y247129D01*
X2603507Y247157D01*
X2603601Y247181D01*
X2603696Y247201D01*
X2603792Y247218D01*
X2603889Y247231D01*
X2603986Y247240D01*
X2604083Y247246D01*
X2604180Y247248D01*
X2602352Y246465D02*
X2597131Y242027D01*
X2597131Y247248D01*
X4973442Y219131D02*
X4975531Y219131D01*
X4975620Y219133D01*
X4975708Y219139D01*
X4975796Y219148D01*
X4975884Y219161D01*
X4975971Y219178D01*
X4976057Y219198D01*
X4976142Y219223D01*
X4976227Y219250D01*
X4976310Y219282D01*
X4976391Y219316D01*
X4976471Y219355D01*
X4976549Y219396D01*
X4976626Y219441D01*
X4976700Y219489D01*
X4976773Y219540D01*
X4976843Y219594D01*
X4976910Y219652D01*
X4976976Y219712D01*
X4977038Y219774D01*
X4977098Y219840D01*
X4977156Y219907D01*
X4977210Y219977D01*
X4977261Y220050D01*
X4977309Y220124D01*
X4977354Y220201D01*
X4977395Y220279D01*
X4977434Y220359D01*
X4977468Y220440D01*
X4977500Y220523D01*
X4977527Y220608D01*
X4977552Y220693D01*
X4977572Y220779D01*
X4977589Y220866D01*
X4977602Y220954D01*
X4977611Y221042D01*
X4977617Y221130D01*
X4977619Y221219D01*
X4977619Y226441D01*
X4977617Y226530D01*
X4977611Y226618D01*
X4977602Y226706D01*
X4977589Y226794D01*
X4977572Y226881D01*
X4977552Y226967D01*
X4977527Y227052D01*
X4977500Y227137D01*
X4977468Y227220D01*
X4977434Y227301D01*
X4977395Y227381D01*
X4977354Y227459D01*
X4977309Y227536D01*
X4977261Y227610D01*
X4977210Y227683D01*
X4977156Y227753D01*
X4977098Y227820D01*
X4977038Y227886D01*
X4976976Y227948D01*
X4976910Y228008D01*
X4976843Y228066D01*
X4976773Y228120D01*
X4976700Y228171D01*
X4976626Y228219D01*
X4976549Y228264D01*
X4976471Y228305D01*
X4976391Y228344D01*
X4976310Y228378D01*
X4976227Y228410D01*
X4976142Y228437D01*
X4976057Y228462D01*
X4975971Y228482D01*
X4975884Y228499D01*
X4975796Y228512D01*
X4975708Y228521D01*
X4975620Y228527D01*
X4975531Y228529D01*
X4973442Y228529D01*
X4967885Y228529D02*
X4969973Y221219D01*
X4964752Y221219D01*
X4966319Y219131D02*
X4966319Y223308D01*
X4972442Y248131D02*
X4974531Y248131D01*
X4974620Y248133D01*
X4974708Y248139D01*
X4974796Y248148D01*
X4974884Y248161D01*
X4974971Y248178D01*
X4975057Y248198D01*
X4975142Y248223D01*
X4975227Y248250D01*
X4975310Y248282D01*
X4975391Y248316D01*
X4975471Y248355D01*
X4975549Y248396D01*
X4975626Y248441D01*
X4975700Y248489D01*
X4975773Y248540D01*
X4975843Y248594D01*
X4975910Y248652D01*
X4975976Y248712D01*
X4976038Y248774D01*
X4976098Y248840D01*
X4976156Y248907D01*
X4976210Y248977D01*
X4976261Y249050D01*
X4976309Y249124D01*
X4976354Y249201D01*
X4976395Y249279D01*
X4976434Y249359D01*
X4976468Y249440D01*
X4976500Y249523D01*
X4976527Y249608D01*
X4976552Y249693D01*
X4976572Y249779D01*
X4976589Y249866D01*
X4976602Y249954D01*
X4976611Y250042D01*
X4976617Y250130D01*
X4976619Y250219D01*
X4976619Y255441D01*
X4976617Y255530D01*
X4976611Y255618D01*
X4976602Y255706D01*
X4976589Y255794D01*
X4976572Y255881D01*
X4976552Y255967D01*
X4976527Y256052D01*
X4976500Y256137D01*
X4976468Y256220D01*
X4976434Y256301D01*
X4976395Y256381D01*
X4976354Y256459D01*
X4976309Y256536D01*
X4976261Y256610D01*
X4976210Y256683D01*
X4976156Y256753D01*
X4976098Y256820D01*
X4976038Y256886D01*
X4975976Y256948D01*
X4975910Y257008D01*
X4975843Y257066D01*
X4975773Y257120D01*
X4975700Y257171D01*
X4975626Y257219D01*
X4975549Y257264D01*
X4975471Y257305D01*
X4975391Y257344D01*
X4975310Y257378D01*
X4975227Y257410D01*
X4975142Y257437D01*
X4975057Y257462D01*
X4974971Y257482D01*
X4974884Y257499D01*
X4974796Y257512D01*
X4974708Y257521D01*
X4974620Y257527D01*
X4974531Y257529D01*
X4972442Y257529D01*
X4968973Y248131D02*
X4965841Y248131D01*
X4965752Y248133D01*
X4965664Y248139D01*
X4965576Y248148D01*
X4965488Y248161D01*
X4965401Y248178D01*
X4965315Y248198D01*
X4965230Y248223D01*
X4965145Y248250D01*
X4965062Y248282D01*
X4964981Y248316D01*
X4964901Y248355D01*
X4964823Y248396D01*
X4964746Y248441D01*
X4964672Y248489D01*
X4964599Y248540D01*
X4964529Y248594D01*
X4964462Y248652D01*
X4964396Y248712D01*
X4964334Y248774D01*
X4964274Y248840D01*
X4964216Y248907D01*
X4964162Y248977D01*
X4964111Y249050D01*
X4964063Y249124D01*
X4964018Y249201D01*
X4963977Y249279D01*
X4963938Y249359D01*
X4963904Y249440D01*
X4963872Y249523D01*
X4963845Y249608D01*
X4963820Y249693D01*
X4963800Y249779D01*
X4963783Y249866D01*
X4963770Y249954D01*
X4963761Y250042D01*
X4963755Y250130D01*
X4963753Y250219D01*
X4963752Y250219D02*
X4963752Y251264D01*
X4963753Y251264D02*
X4963755Y251353D01*
X4963761Y251441D01*
X4963770Y251529D01*
X4963783Y251617D01*
X4963800Y251704D01*
X4963820Y251790D01*
X4963845Y251875D01*
X4963872Y251960D01*
X4963904Y252043D01*
X4963938Y252124D01*
X4963977Y252204D01*
X4964018Y252282D01*
X4964063Y252359D01*
X4964111Y252433D01*
X4964162Y252506D01*
X4964216Y252576D01*
X4964274Y252643D01*
X4964334Y252709D01*
X4964396Y252771D01*
X4964462Y252831D01*
X4964529Y252889D01*
X4964599Y252943D01*
X4964672Y252994D01*
X4964746Y253042D01*
X4964823Y253087D01*
X4964901Y253128D01*
X4964981Y253167D01*
X4965062Y253201D01*
X4965145Y253233D01*
X4965230Y253260D01*
X4965315Y253285D01*
X4965401Y253305D01*
X4965488Y253322D01*
X4965576Y253335D01*
X4965664Y253344D01*
X4965752Y253350D01*
X4965841Y253352D01*
X4968973Y253352D01*
X4968973Y257529D01*
X4963752Y257529D01*
X4972442Y274131D02*
X4974531Y274131D01*
X4974620Y274133D01*
X4974708Y274139D01*
X4974796Y274148D01*
X4974884Y274161D01*
X4974971Y274178D01*
X4975057Y274198D01*
X4975142Y274223D01*
X4975227Y274250D01*
X4975310Y274282D01*
X4975391Y274316D01*
X4975471Y274355D01*
X4975549Y274396D01*
X4975626Y274441D01*
X4975700Y274489D01*
X4975773Y274540D01*
X4975843Y274594D01*
X4975910Y274652D01*
X4975976Y274712D01*
X4976038Y274774D01*
X4976098Y274840D01*
X4976156Y274907D01*
X4976210Y274977D01*
X4976261Y275050D01*
X4976309Y275124D01*
X4976354Y275201D01*
X4976395Y275279D01*
X4976434Y275359D01*
X4976468Y275440D01*
X4976500Y275523D01*
X4976527Y275608D01*
X4976552Y275693D01*
X4976572Y275779D01*
X4976589Y275866D01*
X4976602Y275954D01*
X4976611Y276042D01*
X4976617Y276130D01*
X4976619Y276219D01*
X4976619Y281441D01*
X4976617Y281530D01*
X4976611Y281618D01*
X4976602Y281706D01*
X4976589Y281794D01*
X4976572Y281881D01*
X4976552Y281967D01*
X4976527Y282052D01*
X4976500Y282137D01*
X4976468Y282220D01*
X4976434Y282301D01*
X4976395Y282381D01*
X4976354Y282459D01*
X4976309Y282536D01*
X4976261Y282610D01*
X4976210Y282683D01*
X4976156Y282753D01*
X4976098Y282820D01*
X4976038Y282886D01*
X4975976Y282948D01*
X4975910Y283008D01*
X4975843Y283066D01*
X4975773Y283120D01*
X4975700Y283171D01*
X4975626Y283219D01*
X4975549Y283264D01*
X4975471Y283305D01*
X4975391Y283344D01*
X4975310Y283378D01*
X4975227Y283410D01*
X4975142Y283437D01*
X4975057Y283462D01*
X4974971Y283482D01*
X4974884Y283499D01*
X4974796Y283512D01*
X4974708Y283521D01*
X4974620Y283527D01*
X4974531Y283529D01*
X4972442Y283529D01*
X4968973Y279352D02*
X4965841Y279352D01*
X4965752Y279350D01*
X4965664Y279344D01*
X4965576Y279335D01*
X4965488Y279322D01*
X4965401Y279305D01*
X4965315Y279285D01*
X4965230Y279260D01*
X4965145Y279233D01*
X4965062Y279201D01*
X4964981Y279167D01*
X4964901Y279128D01*
X4964823Y279087D01*
X4964746Y279042D01*
X4964672Y278994D01*
X4964599Y278943D01*
X4964529Y278889D01*
X4964462Y278831D01*
X4964396Y278771D01*
X4964334Y278709D01*
X4964274Y278643D01*
X4964216Y278576D01*
X4964162Y278506D01*
X4964111Y278433D01*
X4964063Y278359D01*
X4964018Y278282D01*
X4963977Y278204D01*
X4963938Y278124D01*
X4963904Y278043D01*
X4963872Y277960D01*
X4963845Y277875D01*
X4963820Y277790D01*
X4963800Y277704D01*
X4963783Y277617D01*
X4963770Y277529D01*
X4963761Y277441D01*
X4963755Y277353D01*
X4963753Y277264D01*
X4963752Y277264D02*
X4963752Y276742D01*
X4963754Y276641D01*
X4963760Y276540D01*
X4963770Y276439D01*
X4963783Y276339D01*
X4963801Y276239D01*
X4963822Y276140D01*
X4963848Y276042D01*
X4963877Y275945D01*
X4963909Y275849D01*
X4963946Y275755D01*
X4963986Y275662D01*
X4964030Y275570D01*
X4964077Y275481D01*
X4964128Y275393D01*
X4964182Y275307D01*
X4964239Y275224D01*
X4964299Y275142D01*
X4964363Y275064D01*
X4964429Y274987D01*
X4964499Y274914D01*
X4964571Y274843D01*
X4964646Y274775D01*
X4964724Y274710D01*
X4964804Y274648D01*
X4964886Y274589D01*
X4964971Y274533D01*
X4965058Y274481D01*
X4965146Y274432D01*
X4965237Y274386D01*
X4965329Y274345D01*
X4965423Y274306D01*
X4965518Y274272D01*
X4965614Y274241D01*
X4965712Y274214D01*
X4965810Y274190D01*
X4965910Y274171D01*
X4966010Y274155D01*
X4966110Y274143D01*
X4966211Y274135D01*
X4966312Y274131D01*
X4966414Y274131D01*
X4966515Y274135D01*
X4966616Y274143D01*
X4966716Y274155D01*
X4966816Y274171D01*
X4966916Y274190D01*
X4967014Y274214D01*
X4967112Y274241D01*
X4967208Y274272D01*
X4967303Y274306D01*
X4967397Y274345D01*
X4967489Y274386D01*
X4967580Y274432D01*
X4967669Y274481D01*
X4967755Y274533D01*
X4967840Y274589D01*
X4967922Y274648D01*
X4968002Y274710D01*
X4968080Y274775D01*
X4968155Y274843D01*
X4968227Y274914D01*
X4968297Y274987D01*
X4968363Y275064D01*
X4968427Y275142D01*
X4968487Y275224D01*
X4968544Y275307D01*
X4968598Y275393D01*
X4968649Y275481D01*
X4968696Y275570D01*
X4968740Y275662D01*
X4968780Y275755D01*
X4968817Y275849D01*
X4968849Y275945D01*
X4968878Y276042D01*
X4968904Y276140D01*
X4968925Y276239D01*
X4968943Y276339D01*
X4968956Y276439D01*
X4968966Y276540D01*
X4968972Y276641D01*
X4968974Y276742D01*
X4968973Y276742D02*
X4968973Y279352D01*
X4968971Y279478D01*
X4968965Y279604D01*
X4968956Y279730D01*
X4968943Y279855D01*
X4968925Y279980D01*
X4968905Y280105D01*
X4968880Y280229D01*
X4968852Y280352D01*
X4968820Y280474D01*
X4968784Y280595D01*
X4968745Y280715D01*
X4968702Y280833D01*
X4968655Y280950D01*
X4968605Y281066D01*
X4968551Y281181D01*
X4968495Y281293D01*
X4968434Y281404D01*
X4968371Y281513D01*
X4968304Y281620D01*
X4968234Y281725D01*
X4968160Y281828D01*
X4968084Y281928D01*
X4968005Y282026D01*
X4967923Y282122D01*
X4967837Y282215D01*
X4967750Y282306D01*
X4967659Y282393D01*
X4967566Y282479D01*
X4967470Y282561D01*
X4967372Y282640D01*
X4967272Y282716D01*
X4967169Y282790D01*
X4967064Y282860D01*
X4966957Y282927D01*
X4966848Y282990D01*
X4966737Y283051D01*
X4966625Y283107D01*
X4966510Y283161D01*
X4966394Y283211D01*
X4966277Y283258D01*
X4966159Y283301D01*
X4966039Y283340D01*
X4965918Y283376D01*
X4965796Y283408D01*
X4965673Y283436D01*
X4965549Y283461D01*
X4965424Y283481D01*
X4965299Y283499D01*
X4965174Y283512D01*
X4965048Y283521D01*
X4964922Y283527D01*
X4964796Y283529D01*
M02*
