G04 EAGLE Gerber X2 export*
G75*
%MOMM*%
%FSLAX34Y34*%
%LPD*%
%AMOC8*
5,1,8,0,0,1.08239X$1,22.5*%
G01*
%ADD10C,3.403200*%
%ADD11R,0.505000X1.432600*%
%ADD12C,2.453200*%
%ADD13C,0.190500*%
%ADD14R,1.803200X1.503200*%
%ADD15C,2.082800*%
%ADD16R,1.503200X1.803200*%
%ADD17C,0.959600*%
%ADD18C,1.109600*%


D10*
X4970000Y30000D03*
X4970000Y370000D03*
X30000Y30000D03*
X30000Y370000D03*
X500000Y350000D03*
X1000000Y130000D03*
X1500000Y350000D03*
X2000000Y130000D03*
X2500000Y350000D03*
X3000000Y130000D03*
X3500000Y347000D03*
X4000000Y130000D03*
X4500000Y347000D03*
D11*
X2480500Y136812D03*
X2487000Y136812D03*
X2493500Y136812D03*
X2500000Y136812D03*
X2506500Y136812D03*
X2513000Y136812D03*
X2519500Y136812D03*
X2526000Y136812D03*
X2532500Y136812D03*
X2532500Y76988D03*
X2526000Y76988D03*
X2519500Y76988D03*
X2513000Y76988D03*
X2506500Y76988D03*
X2500000Y76988D03*
X2493500Y76988D03*
X2487000Y76988D03*
X2480500Y76988D03*
D12*
X170000Y200000D03*
X250000Y280000D03*
X330000Y200000D03*
X294000Y266000D03*
X206000Y267000D03*
X179000Y238000D03*
X320000Y238000D03*
X179000Y162000D03*
X320000Y162000D03*
X291000Y133000D03*
X205000Y134000D03*
X660000Y200000D03*
X740000Y280000D03*
X820000Y200000D03*
X784000Y266000D03*
X696000Y267000D03*
X669000Y238000D03*
X810000Y238000D03*
X669000Y162000D03*
X810000Y162000D03*
X781000Y133000D03*
X695000Y134000D03*
X1170000Y200000D03*
X1250000Y280000D03*
X1330000Y200000D03*
X1294000Y266000D03*
X1206000Y267000D03*
X1179000Y238000D03*
X1320000Y238000D03*
X1179000Y162000D03*
X1320000Y162000D03*
X1291000Y133000D03*
X1205000Y134000D03*
X1670000Y200000D03*
X1750000Y280000D03*
X1830000Y200000D03*
X1794000Y266000D03*
X1706000Y267000D03*
X1679000Y238000D03*
X1820000Y238000D03*
X1679000Y162000D03*
X1820000Y162000D03*
X1791000Y133000D03*
X1705000Y134000D03*
X2170000Y200000D03*
X2250000Y280000D03*
X2330000Y200000D03*
X2294000Y266000D03*
X2206000Y267000D03*
X2179000Y238000D03*
X2320000Y238000D03*
X2179000Y162000D03*
X2320000Y162000D03*
X2291000Y133000D03*
X2205000Y134000D03*
X2670000Y200000D03*
X2750000Y280000D03*
X2830000Y200000D03*
X2794000Y266000D03*
X2706000Y267000D03*
X2679000Y238000D03*
X2820000Y238000D03*
X2679000Y162000D03*
X2820000Y162000D03*
X2791000Y133000D03*
X2705000Y134000D03*
X3170000Y200000D03*
X3250000Y280000D03*
X3330000Y200000D03*
X3294000Y266000D03*
X3206000Y267000D03*
X3179000Y238000D03*
X3320000Y238000D03*
X3179000Y162000D03*
X3320000Y162000D03*
X3291000Y133000D03*
X3205000Y134000D03*
X3670000Y200000D03*
X3750000Y280000D03*
X3830000Y200000D03*
X3794000Y266000D03*
X3706000Y267000D03*
X3679000Y238000D03*
X3820000Y238000D03*
X3679000Y162000D03*
X3820000Y162000D03*
X3791000Y133000D03*
X3705000Y134000D03*
X4170000Y200000D03*
X4250000Y280000D03*
X4330000Y200000D03*
X4294000Y266000D03*
X4206000Y267000D03*
X4179000Y238000D03*
X4320000Y238000D03*
X4179000Y162000D03*
X4320000Y162000D03*
X4291000Y133000D03*
X4205000Y134000D03*
X4670000Y200000D03*
X4750000Y280000D03*
X4830000Y200000D03*
X4794000Y266000D03*
X4706000Y267000D03*
X4679000Y238000D03*
X4820000Y238000D03*
X4679000Y162000D03*
X4820000Y162000D03*
X4791000Y133000D03*
X4705000Y134000D03*
D13*
X2479269Y173527D02*
X2462631Y173527D01*
X2462631Y177973D01*
X2479269Y177973D01*
X2479269Y173527D01*
X2479269Y175431D02*
X2462631Y175431D01*
X2462631Y177335D02*
X2479269Y177335D01*
X2479269Y180027D02*
X2462631Y180027D01*
X2462631Y184473D01*
X2479269Y184473D01*
X2479269Y180027D01*
X2479269Y181931D02*
X2462631Y181931D01*
X2462631Y183835D02*
X2479269Y183835D01*
X2479269Y186527D02*
X2462631Y186527D01*
X2462631Y190973D01*
X2479269Y190973D01*
X2479269Y186527D01*
X2479269Y188431D02*
X2462631Y188431D01*
X2462631Y190335D02*
X2479269Y190335D01*
X2479269Y193027D02*
X2462631Y193027D01*
X2462631Y197473D01*
X2479269Y197473D01*
X2479269Y193027D01*
X2479269Y194931D02*
X2462631Y194931D01*
X2462631Y196835D02*
X2479269Y196835D01*
X2479269Y199527D02*
X2462631Y199527D01*
X2462631Y203973D01*
X2479269Y203973D01*
X2479269Y199527D01*
X2479269Y201431D02*
X2462631Y201431D01*
X2462631Y203335D02*
X2479269Y203335D01*
X2479269Y206027D02*
X2462631Y206027D01*
X2462631Y210473D01*
X2479269Y210473D01*
X2479269Y206027D01*
X2479269Y207931D02*
X2462631Y207931D01*
X2462631Y209835D02*
X2479269Y209835D01*
X2479269Y212527D02*
X2462631Y212527D01*
X2462631Y216973D01*
X2479269Y216973D01*
X2479269Y212527D01*
X2479269Y214431D02*
X2462631Y214431D01*
X2462631Y216335D02*
X2479269Y216335D01*
X2479269Y219027D02*
X2462631Y219027D01*
X2462631Y223473D01*
X2479269Y223473D01*
X2479269Y219027D01*
X2479269Y220931D02*
X2462631Y220931D01*
X2462631Y222835D02*
X2479269Y222835D01*
X2479269Y225527D02*
X2462631Y225527D01*
X2462631Y229973D01*
X2479269Y229973D01*
X2479269Y225527D01*
X2479269Y227431D02*
X2462631Y227431D01*
X2462631Y229335D02*
X2479269Y229335D01*
X2479269Y232027D02*
X2462631Y232027D01*
X2462631Y236473D01*
X2479269Y236473D01*
X2479269Y232027D01*
X2479269Y233931D02*
X2462631Y233931D01*
X2462631Y235835D02*
X2479269Y235835D01*
X2479269Y238527D02*
X2462631Y238527D01*
X2462631Y242973D01*
X2479269Y242973D01*
X2479269Y238527D01*
X2479269Y240431D02*
X2462631Y240431D01*
X2462631Y242335D02*
X2479269Y242335D01*
X2479269Y245027D02*
X2462631Y245027D01*
X2462631Y249473D01*
X2479269Y249473D01*
X2479269Y245027D01*
X2479269Y246931D02*
X2462631Y246931D01*
X2462631Y248835D02*
X2479269Y248835D01*
X2479269Y251527D02*
X2462631Y251527D01*
X2462631Y255973D01*
X2479269Y255973D01*
X2479269Y251527D01*
X2479269Y253431D02*
X2462631Y253431D01*
X2462631Y255335D02*
X2479269Y255335D01*
X2479269Y258027D02*
X2462631Y258027D01*
X2462631Y262473D01*
X2479269Y262473D01*
X2479269Y258027D01*
X2479269Y259931D02*
X2462631Y259931D01*
X2462631Y261835D02*
X2479269Y261835D01*
X2532731Y258027D02*
X2549369Y258027D01*
X2532731Y258027D02*
X2532731Y262473D01*
X2549369Y262473D01*
X2549369Y258027D01*
X2549369Y259931D02*
X2532731Y259931D01*
X2532731Y261835D02*
X2549369Y261835D01*
X2549369Y251527D02*
X2532731Y251527D01*
X2532731Y255973D01*
X2549369Y255973D01*
X2549369Y251527D01*
X2549369Y253431D02*
X2532731Y253431D01*
X2532731Y255335D02*
X2549369Y255335D01*
X2549369Y245027D02*
X2532731Y245027D01*
X2532731Y249473D01*
X2549369Y249473D01*
X2549369Y245027D01*
X2549369Y246931D02*
X2532731Y246931D01*
X2532731Y248835D02*
X2549369Y248835D01*
X2549369Y238527D02*
X2532731Y238527D01*
X2532731Y242973D01*
X2549369Y242973D01*
X2549369Y238527D01*
X2549369Y240431D02*
X2532731Y240431D01*
X2532731Y242335D02*
X2549369Y242335D01*
X2549369Y232027D02*
X2532731Y232027D01*
X2532731Y236473D01*
X2549369Y236473D01*
X2549369Y232027D01*
X2549369Y233931D02*
X2532731Y233931D01*
X2532731Y235835D02*
X2549369Y235835D01*
X2549369Y225527D02*
X2532731Y225527D01*
X2532731Y229973D01*
X2549369Y229973D01*
X2549369Y225527D01*
X2549369Y227431D02*
X2532731Y227431D01*
X2532731Y229335D02*
X2549369Y229335D01*
X2549369Y219027D02*
X2532731Y219027D01*
X2532731Y223473D01*
X2549369Y223473D01*
X2549369Y219027D01*
X2549369Y220931D02*
X2532731Y220931D01*
X2532731Y222835D02*
X2549369Y222835D01*
X2549369Y212527D02*
X2532731Y212527D01*
X2532731Y216973D01*
X2549369Y216973D01*
X2549369Y212527D01*
X2549369Y214431D02*
X2532731Y214431D01*
X2532731Y216335D02*
X2549369Y216335D01*
X2549369Y206027D02*
X2532731Y206027D01*
X2532731Y210473D01*
X2549369Y210473D01*
X2549369Y206027D01*
X2549369Y207931D02*
X2532731Y207931D01*
X2532731Y209835D02*
X2549369Y209835D01*
X2549369Y199527D02*
X2532731Y199527D01*
X2532731Y203973D01*
X2549369Y203973D01*
X2549369Y199527D01*
X2549369Y201431D02*
X2532731Y201431D01*
X2532731Y203335D02*
X2549369Y203335D01*
X2549369Y193027D02*
X2532731Y193027D01*
X2532731Y197473D01*
X2549369Y197473D01*
X2549369Y193027D01*
X2549369Y194931D02*
X2532731Y194931D01*
X2532731Y196835D02*
X2549369Y196835D01*
X2549369Y186527D02*
X2532731Y186527D01*
X2532731Y190973D01*
X2549369Y190973D01*
X2549369Y186527D01*
X2549369Y188431D02*
X2532731Y188431D01*
X2532731Y190335D02*
X2549369Y190335D01*
X2549369Y180027D02*
X2532731Y180027D01*
X2532731Y184473D01*
X2549369Y184473D01*
X2549369Y180027D01*
X2549369Y181931D02*
X2532731Y181931D01*
X2532731Y183835D02*
X2549369Y183835D01*
X2549369Y173527D02*
X2532731Y173527D01*
X2532731Y177973D01*
X2549369Y177973D01*
X2549369Y173527D01*
X2549369Y175431D02*
X2532731Y175431D01*
X2532731Y177335D02*
X2549369Y177335D01*
D14*
X2609000Y234000D03*
X2609000Y254000D03*
X2588000Y234000D03*
X2588000Y254000D03*
D15*
X4924000Y65000D03*
X4898600Y65000D03*
X4924000Y90400D03*
X4898600Y90400D03*
X4924000Y115800D03*
X4898600Y115800D03*
X4924000Y141200D03*
X4898600Y141200D03*
X4924000Y166600D03*
X4898600Y166600D03*
X4924000Y192000D03*
X4898600Y192000D03*
X4924000Y217400D03*
X4898600Y217400D03*
X4924000Y242800D03*
X4898600Y242800D03*
X4924000Y268200D03*
X4898600Y268200D03*
X4924000Y293600D03*
X4898600Y293600D03*
D16*
X4978000Y210000D03*
X4958000Y210000D03*
X4977000Y239000D03*
X4957000Y239000D03*
X4977000Y265000D03*
X4957000Y265000D03*
D15*
X2358000Y307000D03*
X2383400Y307000D03*
X2408800Y307000D03*
X2434200Y307000D03*
X2459600Y307000D03*
D17*
X2518000Y204000D03*
X2457000Y286000D03*
X2467000Y286000D03*
X2557000Y29000D03*
X2568000Y29000D03*
X2579000Y29000D03*
X2591000Y29000D03*
X2547000Y29000D03*
X2648000Y152000D03*
X3545000Y360000D03*
X3620000Y356000D03*
X3738000Y361000D03*
X4766000Y347000D03*
X4672000Y346000D03*
X4563000Y347000D03*
X4577000Y242000D03*
X4755000Y244000D03*
X4849000Y262000D03*
X4857000Y164000D03*
X4762000Y166000D03*
X4750000Y113000D03*
X4774000Y21000D03*
X4520000Y104000D03*
X4249000Y154000D03*
X4108000Y126000D03*
X4106000Y242000D03*
X4384000Y345000D03*
X4319000Y346000D03*
X4216000Y346000D03*
X4155000Y350000D03*
X4067000Y346000D03*
X4449000Y348000D03*
X3846000Y346000D03*
X3957000Y352000D03*
X4037000Y101000D03*
X3897000Y128000D03*
X3926000Y242000D03*
X3415000Y361000D03*
X3448000Y338000D03*
X3234000Y347000D03*
X3333000Y347000D03*
X3128000Y348000D03*
X3031000Y344000D03*
X2869000Y347000D03*
X2745000Y355000D03*
X2634000Y335000D03*
X2395000Y351000D03*
X2440000Y329000D03*
X2246000Y358000D03*
X2163000Y373000D03*
X2026000Y360000D03*
X1910000Y358000D03*
X1788000Y358000D03*
X1690000Y358000D03*
X1579000Y358000D03*
X1850000Y323000D03*
X1386000Y353000D03*
X1415000Y328000D03*
X1274000Y348000D03*
X1140000Y351000D03*
X976000Y356000D03*
X856000Y352000D03*
X743000Y375000D03*
X627000Y344000D03*
X559000Y370000D03*
X431000Y361000D03*
X238000Y365000D03*
X138000Y352000D03*
X78000Y294000D03*
X340000Y349000D03*
X162000Y296000D03*
X56000Y228000D03*
X132000Y207000D03*
X60000Y143000D03*
X144000Y111000D03*
X55000Y74000D03*
X217000Y48000D03*
X83000Y42000D03*
X321000Y52000D03*
X373000Y48000D03*
X545000Y79000D03*
X617000Y21000D03*
X669000Y80000D03*
X805000Y14000D03*
X933000Y123000D03*
X1102000Y133000D03*
X1094000Y19000D03*
X1500000Y109000D03*
X1538000Y25000D03*
X1876000Y110000D03*
X1817000Y19000D03*
X2098000Y119000D03*
X2073000Y22000D03*
X2289000Y27000D03*
X893000Y141000D03*
X597000Y95000D03*
X2399000Y292000D03*
X2389000Y172000D03*
X2810000Y20000D03*
X2764000Y20000D03*
X2169000Y18000D03*
X1908000Y22000D03*
X316000Y31000D03*
X2654000Y20000D03*
X2717000Y16000D03*
X3410000Y23000D03*
X3527000Y16000D03*
X4118000Y16000D03*
X4622000Y20000D03*
X4427000Y18000D03*
X4752000Y17000D03*
X4838000Y16000D03*
X4921000Y24000D03*
X4963000Y109000D03*
X4866000Y234000D03*
X4803000Y299000D03*
X2465000Y353000D03*
X2583000Y272000D03*
X2600000Y274000D03*
X2574000Y329000D03*
X2611000Y305000D03*
X2430000Y276000D03*
X2747000Y147000D03*
X2784000Y159000D03*
X2843000Y134000D03*
X2851000Y157000D03*
X3050000Y151000D03*
X3117000Y138000D03*
X2940000Y143000D03*
X2431000Y217000D03*
X2365000Y166000D03*
X2379000Y186000D03*
X2400000Y156000D03*
X2662000Y152000D03*
X2591000Y198000D03*
X2532000Y158000D03*
D18*
X2680000Y310000D03*
D17*
X2650000Y180000D03*
X2654000Y219000D03*
X2589000Y160000D03*
X2589000Y152000D03*
X2426000Y110000D03*
X2428000Y228000D03*
X2489000Y235000D03*
X2428000Y204000D03*
X2489000Y221000D03*
X2442000Y201000D03*
X2563000Y260000D03*
X2563000Y247000D03*
X2563450Y217330D03*
X2567000Y195000D03*
X2497000Y198000D03*
X2515000Y184000D03*
X2428000Y241000D03*
X2489000Y247000D03*
X2428000Y254000D03*
X2494000Y176000D03*
X2406352Y267352D03*
X2487000Y265000D03*
X2550000Y274000D03*
X2571000Y209000D03*
X2509000Y235000D03*
X2509000Y263000D03*
X2502004Y183004D03*
X2572000Y307000D03*
X2580000Y199000D03*
X4148000Y109000D03*
X4128000Y136000D03*
M02*
